PathFileType  4	(X/Y/Z) C:\Users\antoi\Documents\MyRepositories\mobilecap\ResultsAnalysis
DataRate	CameraRate	NumFrames	NumMarkers	Units	OrigDataRate	OrigDataStartFrame	OrigNumFrames
100.0	100.0	6	51	mm	100.0	77	306
Frame#	Time	r_knee			r_shank_antsup			r_ankle			r_calc			r_5meta			r_toe			L_knee			L_shank_antsup			L_ankle			L_calc			L_5meta			L_toe			r_sh2			r_sh3			r_sh4			L_sh2			L_sh3			r_thigh1			r_thigh2			r_thigh3			r_thigh4			r_thigh5			L_thigh1			L_thigh2			L_thigh3			L_thigh4			r.ASIS			r.PSIS			L.ASIS			L.PSIS			C7			R_Shoulder			L_Shoulder			R_Sternum			L_Sternum			R_humerus			R_elbow_med			R_elbow_lat			R_forearm			R_wrist_radius			R_wrist_ulna			L_humerus			L_elbow_med			L_elbow_lat			L_forearm			L_wrist_radius			L_wrist_ulna			R_HJC			L_HJC			R_HJC_reg			L_HJC_reg			
		X1	Y1	Z1	X2	Y2	Z2	X3	Y3	Z3	X4	Y4	Z4	X5	Y5	Z5	X6	Y6	Z6	X7	Y7	Z7	X8	Y8	Z8	X9	Y9	Z9	X10	Y10	Z10	X11	Y11	Z11	X12	Y12	Z12	X13	Y13	Z13	X14	Y14	Z14	X15	Y15	Z15	X16	Y16	Z16	X17	Y17	Z17	X18	Y18	Z18	X19	Y19	Z19	X20	Y20	Z20	X21	Y21	Z21	X22	Y22	Z22	X23	Y23	Z23	X24	Y24	Z24	X25	Y25	Z25	X26	Y26	Z26	X27	Y27	Z27	X28	Y28	Z28	X29	Y29	Z29	X30	Y30	Z30	X31	Y31	Z31	X32	Y32	Z32	X33	Y33	Z33	X34	Y34	Z34	X35	Y35	Z35	X36	Y36	Z36	X37	Y37	Z37	X38	Y38	Z38	X39	Y39	Z39	X40	Y40	Z40	X41	Y41	Z41	X42	Y42	Z42	X43	Y43	Z43	X44	Y44	Z44	X45	Y45	Z45	X46	Y46	Z46	X47	Y47	Z47	X48	Y48	Z48	X49	Y49	Z49	X50	Y50	Z50	X51	Y51	Z51	

77	0.76000000	-1126.30684	757.27709	-424.05209	-1109.28018	634.09252	-442.26561	-1253.24269	400.39409	-455.82305	-1303.52623	357.65884	-506.89377	-1143.36461	349.89452	-420.14735	-1106.78934	368.09934	-463.80593	-1120.60541	760.89085	-727.71223	-1099.16579	647.63782	-686.97459	-1255.89158	398.00567	-720.23403	-1306.89086	361.39992	-685.42960	-1140.44556	346.86192	-743.79518	-1103.44389	365.82974	-688.90239	-1152.47221	531.64822	-455.89665	-1162.78689	648.84068	-389.78325	-1219.80564	556.00622	-410.36120	-1142.04316	686.54749	-755.23853	-1186.61642	574.02220	-770.35190	-1126.62431	1065.51898	-414.34989	-1092.16120	963.13048	-414.04004	-1127.27746	922.72854	-374.55659	-1224.76736	1029.73060	-374.24368	-1183.83519	921.75626	-373.63193	-1138.98166	1055.21722	-746.38921	-1084.20560	926.29099	-740.10648	-1242.30083	1017.73881	-769.82375	-1186.84197	887.39322	-757.02517	-1116.31901	1181.07572	-453.08215	-1273.36119	1286.72907	-517.16231	-1117.72805	1181.13530	-695.13939	-1277.19213	1289.27708	-634.42877	-1060.84103	1695.13731	-562.28149	-1020.84063	1643.68190	-411.13984	-1010.25808	1652.90066	-717.76171	-967.12050	1597.57800	-539.95933	-965.37302	1594.05163	-582.17415	-1055.93266	1521.21214	-344.80043	-1214.71972	1382.23427	-389.19257	-1184.84703	1375.73710	-320.41204	-1192.34382	1249.33909	-300.49212	-1210.66503	1146.44263	-298.93491	-1242.83858	1157.20181	-280.47516	-1058.94537	1512.75164	-788.04611	-1208.49533	1379.51740	-730.41542	-1193.39573	1383.97331	-808.85351	-1194.35322	1288.97402	-842.14862	-1222.69128	1158.88554	-846.61761	-1248.18572	1168.76031	-862.64928	-1226.59069	1146.70085	-476.68416	-1225.01089	1142.23900	-666.00243	-1207.01007	1141.01149	-484.79437	-1212.22517	1144.48009	-644.43249	
78	0.77000000	-1123.69936	756.14451	-424.00406	-1107.26095	632.95131	-442.25659	-1252.72080	399.29115	-456.90448	-1303.48305	357.70184	-506.83013	-1143.32283	349.83699	-420.07512	-1106.71825	367.93859	-463.85708	-1117.87905	759.99857	-727.40429	-1096.93356	646.46747	-686.65779	-1255.69339	398.01853	-719.94408	-1306.86026	361.46411	-685.47163	-1140.41546	346.85251	-743.80770	-1103.41222	365.72789	-688.86067	-1151.14975	530.85360	-455.92064	-1160.62106	647.99026	-389.81262	-1217.88893	554.74320	-410.39737	-1139.50063	685.67065	-754.84989	-1185.33369	573.29482	-770.66614	-1126.08658	1064.13820	-413.69818	-1091.00014	962.13478	-413.46602	-1125.84566	921.33742	-374.28432	-1225.27524	1027.36349	-375.61132	-1182.42744	920.17838	-373.22082	-1138.87008	1053.69308	-746.09067	-1082.98506	925.38469	-740.30625	-1241.87003	1015.77208	-769.49467	-1185.36043	885.73324	-756.78095	-1115.94331	1178.41116	-452.55652	-1272.23397	1285.12966	-516.81232	-1117.56246	1177.95728	-694.92418	-1276.01589	1287.64793	-634.15240	-1055.07535	1691.04714	-562.02820	-1015.04729	1639.25481	-411.01120	-1004.49080	1648.67353	-717.45872	-962.15333	1592.54862	-539.89645	-960.37968	1589.25583	-581.80973	-1050.60696	1516.79798	-344.95859	-1210.61475	1378.99158	-388.18796	-1180.05419	1371.94689	-320.10515	-1187.84996	1245.55417	-300.72373	-1206.56304	1142.56816	-299.44755	-1238.54998	1153.39068	-280.79505	-1053.44342	1508.42788	-787.46293	-1203.62207	1376.01226	-730.75120	-1188.30940	1380.17697	-808.65101	-1189.08792	1284.98370	-841.39022	-1217.19666	1154.50681	-845.42207	-1242.56650	1163.99727	-861.24546	-1226.53386	1144.86502	-476.16102	-1225.13170	1140.04884	-665.47248	-1207.09314	1138.68404	-484.32795	-1212.24492	1142.11468	-644.17451	
79	0.78000000	-1120.98770	754.96373	-424.10071	-1105.20085	631.73977	-442.21088	-1251.88889	397.45869	-458.61242	-1303.48855	357.83054	-506.90824	-1143.27530	349.70439	-420.09862	-1106.66433	367.77264	-463.93749	-1115.19235	759.14272	-727.35758	-1094.70144	645.32136	-686.42601	-1255.47876	398.10817	-719.66140	-1306.81719	361.56847	-685.47061	-1140.36630	346.87032	-743.89530	-1103.35972	365.63291	-688.85014	-1149.83237	530.03593	-455.96813	-1158.41657	647.19776	-389.71010	-1215.54137	552.96600	-410.79485	-1136.95219	684.71740	-754.44766	-1183.84712	572.67607	-770.55630	-1125.67962	1062.89085	-413.02877	-1089.76629	960.99321	-412.60406	-1124.50172	919.90793	-373.89611	-1224.65031	1025.36403	-375.43062	-1181.03808	918.58081	-372.84035	-1138.56079	1052.22040	-746.01388	-1081.75869	924.44227	-740.48529	-1241.02095	1014.39035	-769.18381	-1183.85471	883.99468	-756.42035	-1115.74923	1175.60913	-452.42654	-1270.96570	1283.51667	-516.56489	-1117.37538	1175.02136	-694.52408	-1274.75189	1285.98549	-633.93315	-1049.32576	1686.95716	-561.69272	-1009.18216	1634.69274	-410.81116	-998.72768	1644.22254	-717.08345	-957.21268	1587.46322	-539.88136	-955.26741	1584.28160	-581.30207	-1045.22022	1512.28195	-344.99467	-1206.46611	1375.70533	-387.02127	-1175.21273	1368.07046	-319.69622	-1183.18382	1241.48176	-301.09188	-1202.20875	1138.48366	-299.96866	-1234.01581	1149.39292	-281.08033	-1047.94235	1504.01348	-786.98654	-1198.59931	1372.28922	-730.88620	-1183.14189	1376.10005	-808.30405	-1183.58755	1280.48197	-840.47619	-1211.11787	1149.73528	-844.09865	-1236.68605	1159.28420	-860.16487	-1226.53790	1142.93828	-475.85743	-1225.19749	1137.99942	-665.16621	-1207.13869	1136.70341	-484.10720	-1212.28923	1140.06224	-643.77707	
80	0.79000000	-1118.24095	753.82805	-424.14362	-1103.08693	630.48702	-442.10753	-1251.37529	396.42363	-459.63216	-1303.44948	357.96465	-507.05407	-1143.23153	349.57519	-420.17628	-1106.60759	367.60287	-463.98085	-1112.53115	758.19030	-727.35696	-1092.50618	644.12711	-686.23070	-1255.25373	398.24788	-719.41452	-1306.77073	361.66985	-685.35227	-1140.32215	346.90034	-743.97579	-1103.30293	365.56755	-688.84348	-1148.56698	529.25534	-455.99347	-1156.12718	646.40791	-389.54185	-1214.09431	552.75597	-410.87824	-1134.48469	683.83443	-754.27250	-1182.20147	572.17544	-770.14394	-1125.28976	1061.61662	-412.34396	-1088.44514	959.83267	-411.66390	-1123.20241	918.68411	-373.27346	-1223.10376	1023.47405	-373.95754	-1179.62024	916.76637	-372.60303	-1138.08131	1050.80581	-746.41246	-1080.46983	923.46586	-740.52532	-1239.86358	1013.37190	-769.32102	-1182.34589	882.21577	-756.16655	-1115.55454	1172.65423	-452.40742	-1269.57667	1281.89445	-516.46953	-1117.13658	1172.01658	-693.93810	-1273.46094	1284.32418	-633.60709	-1043.57086	1682.75217	-561.39870	-1003.28532	1629.90987	-410.61178	-992.78962	1639.46775	-716.74007	-952.04645	1582.33009	-539.64395	-950.04000	1578.86730	-580.96750	-1039.76374	1507.61273	-344.97820	-1201.80567	1372.19535	-386.27346	-1170.33450	1363.98357	-319.43899	-1178.42559	1237.24739	-301.24599	-1197.52382	1134.30914	-300.36716	-1229.24429	1145.20151	-281.32357	-1042.34803	1499.48471	-786.50488	-1193.38300	1368.23155	-730.96596	-1177.86014	1371.75787	-807.92948	-1177.91024	1275.75461	-839.59074	-1204.80624	1144.94559	-842.84822	-1230.63377	1154.56847	-859.21082	-1226.56096	1140.96417	-475.56650	-1225.24932	1135.93162	-664.87280	-1207.07751	1134.78964	-483.86898	-1212.35975	1138.09381	-643.16144	
81	0.80000000	-1115.50193	752.70052	-423.95193	-1100.87445	629.22625	-442.03735	-1251.23385	396.46022	-459.80707	-1303.37688	358.03068	-507.11891	-1143.19638	349.53702	-420.19040	-1106.53323	367.44403	-463.99836	-1109.84400	757.04186	-727.08970	-1090.33165	642.87726	-686.07285	-1255.03827	398.34587	-719.18629	-1306.73557	361.74608	-685.19843	-1140.30263	346.90171	-743.97821	-1103.26532	365.50884	-688.81299	-1147.28842	528.42817	-456.01195	-1153.77715	645.52956	-389.39280	-1213.28598	553.71471	-410.64349	-1132.10215	683.07084	-754.31315	-1180.62289	571.75365	-770.00635	-1124.74011	1060.18631	-411.56043	-1087.13973	958.66951	-410.96479	-1121.91148	917.56418	-372.59241	-1221.67400	1021.44410	-372.80628	-1178.16308	914.75907	-372.43547	-1137.84515	1049.11107	-746.73973	-1079.13468	922.47836	-740.56372	-1238.78263	1011.92367	-769.50054	-1180.76004	880.43757	-756.08644	-1115.11485	1169.58905	-452.03696	-1268.13407	1280.15213	-516.27620	-1116.82740	1168.86587	-693.54765	-1272.12221	1282.59913	-633.22631	-1037.62862	1678.24979	-561.18735	-997.35688	1624.92113	-410.57643	-986.67338	1634.57540	-716.52762	-946.67631	1577.08750	-539.32961	-944.69906	1573.17302	-580.81331	-1034.24957	1502.68071	-345.12842	-1196.83122	1368.37209	-386.07379	-1165.38476	1359.68784	-319.28337	-1173.59592	1232.89901	-301.28682	-1192.64280	1130.13809	-300.71165	-1224.33611	1140.98218	-281.47843	-1036.56907	1494.70420	-785.94236	-1188.25582	1363.99120	-731.38976	-1172.46583	1367.21924	-807.84290	-1172.09183	1270.99334	-838.90660	-1198.61109	1140.19815	-841.84402	-1224.41587	1149.60181	-858.12785	-1226.42444	1138.89687	-475.17020	-1225.21851	1133.73994	-664.47379	-1206.93530	1132.51631	-483.38769	-1212.36694	1135.84884	-642.66218	
82	0.81000000	-1112.72887	751.44184	-423.64897	-1098.58598	627.90935	-442.08694	-1250.92842	396.61063	-459.95664	-1303.32826	358.04304	-507.10049	-1143.16058	349.52876	-420.16203	-1106.47480	367.32037	-464.01334	-1107.11738	755.75798	-726.57165	-1088.13039	641.61066	-686.06797	-1254.83026	398.41318	-718.95039	-1306.70055	361.83949	-685.14081	-1140.28991	346.88889	-743.94983	-1103.24329	365.42888	-688.78068	-1145.88182	527.48045	-456.07249	-1151.40838	644.56995	-389.31280	-1212.09153	554.14722	-410.49659	-1129.71237	682.28936	-754.24142	-1179.13249	571.46730	-770.21070	-1124.08325	1058.60128	-410.81178	-1085.88184	957.39402	-410.45452	-1120.60922	916.26481	-372.07007	-1220.96220	1019.79283	-372.39539	-1176.70876	912.74913	-372.19332	-1137.90675	1047.05091	-746.52372	-1077.73440	921.49635	-740.76526	-1237.99745	1009.82902	-768.94192	-1179.03848	878.62142	-755.91655	-1114.66850	1166.29704	-451.74271	-1266.62755	1278.27543	-515.91788	-1116.46138	1165.66724	-693.40914	-1270.69516	1280.74981	-632.93189	-1031.54726	1673.52458	-560.98732	-991.33107	1619.88890	-410.45305	-980.59028	1629.63218	-716.25281	-941.35526	1571.71772	-539.14807	-939.42636	1567.87974	-580.79746	-1028.66098	1497.60529	-345.28301	-1191.87567	1364.11857	-386.09331	-1160.31303	1355.20799	-319.06310	-1168.66255	1228.35403	-301.48635	-1187.70597	1125.78750	-301.11697	-1219.36383	1136.53604	-281.72277	-1030.65841	1489.68285	-785.44542	-1183.20104	1359.67785	-732.06465	-1166.95855	1362.49262	-807.97814	-1166.16804	1266.06450	-838.27593	-1192.47627	1135.50453	-841.07412	-1218.05115	1144.43483	-857.04460	-1226.23353	1136.62433	-474.90824	-1225.15715	1131.51038	-664.21390	-1206.81424	1130.10859	-483.03825	-1212.35415	1133.47863	-642.41112	
